<svg width="724" height="588" viewBox="0 0 724 588" fill="none" xmlns="http://www.w3.org/2000/svg">
<path d="M482.795 517C504.896 517 526.964 516.503 548.999 515.51C580.484 514.09 613.041 512.623 643.302 491.553C664.471 476.815 683.219 453.17 697.519 423.171C707.077 402.838 714.086 380.78 718.298 357.77C726.156 315.878 725.888 272.231 717.518 230.495C714.584 216.186 710.54 202.273 705.444 188.954C683.376 131.585 643.125 93.0748 595.013 83.2985C594.616 83.2337 594.214 83.223 593.815 83.2664C593.598 83.2809 593.383 83.2965 593.163 83.2849L592.88 83.172C592.154 82.8553 591.409 82.6152 590.651 82.454C516.449 68.5863 438.006 96.6455 363.81 163.596C306.441 215.369 230.411 243.248 131.375 248.826L129.969 248.918C102.4 250.907 75.7322 265.175 52.8459 290.185C30.2566 314.868 13.2958 347.801 3.79736 385.424C2.62964 390.011 1.55914 394.786 0.615784 399.615C-0.262451 404.103 -0.200378 408.8 0.795898 413.248C1.79211 417.697 3.68866 421.747 6.30096 425.003V425.012L6.54749 425.33C7.14111 426.071 7.76599 426.782 8.40472 427.444L9.1557 428.221C15.4847 434.766 20.4835 439.936 26.4662 443.952C30.4564 446.612 34.7001 448.623 39.0951 449.937C63.229 457.324 87.7373 464.172 111.939 470.293C158.941 482.19 207.181 492.005 255.32 499.463C330.787 511.145 406.755 517.001 482.795 517ZM594.377 85.2982C594.525 85.2965 594.673 85.3091 594.819 85.3359C642.482 95.0208 682.351 133.153 704.2 189.954C709.246 203.141 713.25 216.916 716.155 231.084C724.449 272.449 724.714 315.709 716.925 357.229C712.754 380.018 705.814 401.866 696.348 422.004C682.188 451.709 663.631 475.117 642.684 489.699C612.695 510.581 580.291 512.042 548.954 513.453C450.943 517.85 352.808 512.488 255.471 497.418C207.364 489.965 159.155 480.157 112.185 468.267C87.9989 462.151 63.5076 455.308 39.3901 447.925C35.101 446.644 30.9594 444.682 27.0654 442.086C21.2031 438.152 16.252 433.031 9.98376 426.548L9.23279 425.772C8.68365 425.202 8.14459 424.594 7.62885 423.961L7.48083 423.767C2.32959 417.249 0.326477 408.649 1.98499 400.174V400.173C2.91827 395.395 3.97736 390.672 5.13324 386.132C24.5369 309.275 74.7319 254.96 130.037 250.973L131.436 250.881C176.674 248.332 216.261 241.273 252.453 229.298C295.659 215.003 333.378 193.484 364.563 165.34C438.477 98.6463 516.592 70.6915 590.47 84.4934C591.16 84.6428 591.839 84.8638 592.5 85.1541L593.01 85.3334C593.3 85.3496 593.59 85.3453 593.88 85.3203C594.05 85.3093 594.216 85.2982 594.377 85.2982Z" fill="#A6F4FF"/>
<path d="M265.5 161C235.953 161 212 137.495 212 108.5C212 79.5051 235.953 56 265.5 56C295.047 56 319 79.5051 319 108.5C319 137.495 295.047 161 265.5 161Z" fill="#A6F4FF"/>
<path d="M53.5 512C23.9528 512 0 488.719 0 460C0 431.281 23.9528 408 53.5 408C83.0472 408 107 431.281 107 460C107 488.719 83.0472 512 53.5 512Z" fill="#A6F4FF"/>
<path d="M513.056 29.337V171.928C513.056 174.89 514.245 177.732 516.367 179.837C518.488 181.943 521.37 183.141 524.386 183.172C524.428 183.176 524.47 183.178 524.511 183.177H541.412C554.934 183.177 567.903 177.902 577.465 168.513C587.027 159.123 592.398 146.388 592.398 133.109V29.337C592.398 26.3535 591.192 23.4923 589.043 21.3827C586.895 19.2731 583.981 18.0879 580.943 18.0879H574.095C577.267 27.1758 534.209 31.002 531.846 18.0879H524.511C521.473 18.0879 518.559 19.2731 516.411 21.3827C514.263 23.4923 513.056 26.3536 513.056 29.337Z" fill="#4EDEFF"/>
<path d="M563.209 7.4254C563.209 7.03455 563.05 6.65985 562.769 6.38348C562.488 6.10711 562.106 5.95163 561.708 5.95117H551.499C551.102 5.9523 550.721 6.10811 550.44 6.38446C550.16 6.66081 550.002 7.03514 550.002 7.4254C550.002 7.81565 550.16 8.18999 550.44 8.46634C550.721 8.74269 551.102 8.8985 551.499 8.89963H561.708C562.106 8.89917 562.488 8.74373 562.769 8.46736C563.05 8.19098 563.209 7.81625 563.209 7.4254Z" fill="#3F3D56"/>
<path d="M521.004 201.263H585.563C590.572 201.257 595.374 199.301 598.916 195.823C602.458 192.345 604.45 187.63 604.456 182.711V83.0344C604.81 82.7845 605.099 82.4551 605.298 82.0737C605.497 81.6922 605.601 81.2697 605.6 80.8412V70.8165C605.601 70.388 605.497 69.9656 605.298 69.5842C605.099 69.2029 604.81 68.8737 604.456 68.6238V65.9333C604.81 65.6834 605.099 65.3541 605.298 64.9728C605.497 64.5915 605.601 64.1691 605.6 63.7406V53.7153C605.601 53.2868 605.497 52.8644 605.298 52.4831C605.099 52.1017 604.81 51.7725 604.456 51.5226V46.6599C604.894 46.4291 605.259 46.0857 605.514 45.6666C605.768 45.2476 605.902 44.7685 605.9 44.2806V34.2559C605.902 33.7679 605.768 33.2887 605.514 32.8696C605.259 32.4504 604.894 32.1069 604.456 31.876V18.5514C604.45 13.6329 602.458 8.91751 598.916 5.43966C595.374 1.9618 590.572 0.00552148 585.563 0H521.004C515.995 0.00554134 511.193 1.96185 507.652 5.43973C504.11 8.91761 502.118 13.633 502.112 18.5515V47.5961C501.772 47.8051 501.491 48.0956 501.297 48.4402C501.102 48.7849 501 49.1725 501 49.5666V68.6816C501 69.0758 501.102 69.4634 501.297 69.8082C501.491 70.153 501.772 70.4436 502.112 70.6527V182.711C502.118 187.63 504.11 192.345 507.652 195.823C511.193 199.301 515.995 201.257 521.004 201.263ZM585.563 2.46599C589.906 2.47076 594.07 4.16702 597.141 7.18259C600.212 10.1982 601.94 14.2868 601.945 18.5515V33.9736L603.153 34.0193C603.215 34.0215 603.275 34.0473 603.319 34.0913C603.363 34.1353 603.388 34.1943 603.389 34.2559V44.2805C603.388 44.3422 603.363 44.401 603.319 44.445C603.275 44.4889 603.215 44.5148 603.153 44.5172L601.945 44.5623V53.2541L602.9 53.4852C602.953 53.4978 603 53.5271 603.034 53.5687C603.068 53.6103 603.088 53.6618 603.089 53.7153V63.7406C603.088 63.794 603.068 63.8455 603.034 63.8871C603 63.9287 602.953 63.958 602.9 63.9706L601.945 64.2017V70.3552L602.9 70.5864C602.953 70.599 603 70.6283 603.034 70.6699C603.068 70.7115 603.088 70.763 603.089 70.8164V80.8411C603.088 80.8947 603.068 80.9463 603.034 80.988C603 81.0297 602.953 81.0591 602.9 81.0717L601.945 81.3029V182.711C601.94 186.976 600.212 191.065 597.141 194.08C594.07 197.096 589.906 198.792 585.563 198.797H521.004C516.661 198.792 512.498 197.096 509.427 194.08C506.356 191.065 504.628 186.976 504.623 182.711V68.5413H503.511V49.7075H504.623V18.5514C504.628 14.2868 506.356 10.1982 509.427 7.18266C512.498 4.1671 516.661 2.47084 521.004 2.46595L585.563 2.46599Z" fill="#3F3D56"/>
<path d="M545.794 8.89963C544.965 8.89963 544.293 8.23959 544.293 7.4254C544.293 6.6112 544.965 5.95117 545.794 5.95117C546.624 5.95117 547.296 6.6112 547.296 7.4254C547.296 8.23959 546.624 8.89963 545.794 8.89963Z" fill="#3F3D56"/>
<path d="M552.314 166.745C546.403 166.745 541.611 162.039 541.611 156.235C541.611 150.43 546.403 145.725 552.314 145.725C558.225 145.725 563.017 150.43 563.017 156.235C563.017 162.039 558.225 166.745 552.314 166.745Z" fill="white"/>
<path d="M560.5 508C530.953 508 507 484.495 507 455.5C507 426.505 530.953 403 560.5 403C590.047 403 614 426.505 614 455.5C614 484.495 590.047 508 560.5 508Z" fill="#A6F4FF"/>
<path d="M524.47 455.966L553.061 428.249C554.453 426.889 556.104 425.812 557.921 425.08C559.737 424.348 561.682 423.975 563.646 423.983H563.746C565.725 423.988 567.682 424.379 569.505 425.132C571.329 425.886 572.982 426.987 574.369 428.372C580.762 434.725 584.398 443.264 584.512 452.195C584.627 461.126 581.212 469.752 574.984 476.262C574.683 476.582 574.369 476.89 574.055 477.199C572.316 478.896 570.397 480.405 568.329 481.699C562.677 485.285 556.086 487.183 549.357 487.161H549.143C544.525 487.146 539.955 486.231 535.698 484.47C531.441 482.709 527.583 480.137 524.345 476.903C521.539 474.107 519.977 470.334 520 466.409C520.024 462.484 521.631 458.729 524.47 455.966ZM526.128 475.164C531.436 480.415 538.425 483.709 545.918 484.491C553.411 485.272 560.949 483.494 567.262 479.455C569.068 478.281 570.754 476.939 572.297 475.448C578.458 469.473 581.949 461.34 582.003 452.838C582.057 444.336 578.67 436.16 572.586 430.111C571.429 428.953 570.05 428.034 568.528 427.405C567.006 426.776 565.372 426.451 563.721 426.449H563.646C562.011 426.443 560.391 426.754 558.879 427.363C557.366 427.972 555.991 428.868 554.831 430L526.241 457.73C523.874 460.028 522.533 463.155 522.512 466.424C522.49 469.693 523.791 472.836 526.128 475.164Z" fill="#3F3D56"/>
<path d="M618.278 364.996L646.869 337.266C649.683 334.524 653.489 332.99 657.454 333H657.541C659.522 333.008 661.482 333.401 663.307 334.156C665.133 334.912 666.788 336.015 668.177 337.402C673.462 342.672 676.888 349.467 677.955 356.789C679.021 364.111 677.672 371.576 674.103 378.091L674.091 378.103C672.618 380.767 670.79 383.226 668.654 385.415C668.415 385.686 668.139 385.957 667.863 386.228C661.297 392.628 652.415 396.211 643.165 396.191H642.939C638.319 396.172 633.749 395.255 629.493 393.492C625.236 391.729 621.378 389.155 618.14 385.92C616.75 384.537 615.651 382.899 614.905 381.099C614.16 379.3 613.783 377.373 613.796 375.43C613.808 373.487 614.211 371.566 614.98 369.775C615.749 367.985 616.87 366.361 618.278 364.996ZM619.935 384.194C622.941 387.196 626.522 389.584 630.472 391.22C634.423 392.856 638.664 393.707 642.951 393.725H643.165C649.603 393.723 655.897 391.851 661.255 388.345C666.613 384.839 670.795 379.856 673.277 374.022C675.758 368.188 676.427 361.764 675.201 355.557C673.974 349.351 670.905 343.639 666.381 339.14C664.04 336.816 660.856 335.499 657.527 335.479C654.198 335.458 650.997 336.735 648.627 339.029L620.036 366.747C617.671 369.05 616.332 372.18 616.313 375.45C616.294 378.721 617.597 381.865 619.935 384.194Z" fill="#3F3D56"/>
<path d="M522.643 464.68L554.163 434.11C556.23 432.11 559.021 430.996 561.922 431.014C564.824 431.032 567.6 432.179 569.642 434.204C572.196 436.737 574.216 439.74 575.587 443.041C576.958 446.342 577.653 449.876 577.633 453.44C577.612 457.005 576.877 460.531 575.467 463.816C574.058 467.101 572.004 470.082 569.421 472.587C566.838 475.091 563.778 477.072 560.415 478.415C557.052 479.758 553.453 480.436 549.823 480.412C546.193 480.388 542.603 479.662 539.259 478.274C535.915 476.887 532.882 474.866 530.334 472.327L522.643 464.68Z" fill="#4EDEFF"/>
<path d="M616.445 373.705L647.965 343.135C650.032 341.135 652.823 340.022 655.725 340.039C658.626 340.057 661.403 341.204 663.444 343.229C665.998 345.763 668.018 348.766 669.389 352.066C670.76 355.367 671.456 358.901 671.435 362.466C671.415 366.03 670.679 369.556 669.27 372.841C667.861 376.127 665.806 379.107 663.223 381.612C660.64 384.117 657.58 386.097 654.217 387.44C650.854 388.783 647.255 389.462 643.625 389.438C639.995 389.414 636.405 388.687 633.061 387.3C629.717 385.912 626.685 383.891 624.136 381.352L616.445 373.705Z" fill="#4EDEFF"/>
<path d="M557.28 483.721L558.033 485.669C561.574 484.35 565.006 483.026 568.329 481.699C627.193 458.111 655.294 430.505 674.091 378.102L674.103 378.09C674.995 375.624 675.861 373.1 676.702 370.519L674.718 369.891C674.055 372.373 673.085 374.766 671.831 377.017C670.801 379.89 669.742 382.689 668.654 385.414C650.987 429.642 624.933 454.918 574.984 476.261C572.473 477.334 569.899 478.398 567.262 479.455C564.2 481.413 560.826 482.855 557.28 483.721Z" fill="#3F3D56"/>
<path d="M647.393 393.946L649.158 395.701L583.943 458.951L582.178 457.196L647.393 393.946Z" fill="#3F3D56"/>
<path d="M207.717 243.199C210.618 240.466 213.585 225.224 217.289 223.676C214.52 229.685 216.531 231.276 216.545 237.87C216.51 241.615 216.956 245.349 217.871 248.984H280.614V200.9C280.615 196.579 279.748 192.301 278.064 188.309C276.381 184.318 273.913 180.691 270.802 177.636C267.691 174.581 263.997 172.157 259.932 170.504C255.867 168.851 251.511 168 247.111 168C245.432 168.032 243.763 168.272 242.145 168.714C236.752 170.144 231.837 172.941 227.892 176.825C223.947 180.709 221.112 185.544 219.671 190.843C214.888 208.012 207.281 236.589 207.717 243.199Z" fill="#2F2E41"/>
<path d="M276.933 302.352L276.902 264.873L299.337 266.842L291.419 290.48L295.125 349.894C296.922 350.29 298.563 351.191 299.848 352.487C301.133 353.783 302.006 355.418 302.361 357.193C302.716 358.968 302.537 360.806 301.846 362.483C301.156 364.16 299.983 365.603 298.472 366.637C296.96 367.671 295.175 368.25 293.334 368.305C291.493 368.36 289.675 367.887 288.103 366.945C286.531 366.003 285.271 364.632 284.479 363C283.686 361.367 283.394 359.543 283.639 357.75L276.933 302.352Z" fill="#FFB6B6"/>
<path d="M232.78 570.177L223.717 570.176L219.405 535.846H232.783L232.78 570.177Z" fill="#FFB6B6"/>
<path d="M235.85 565.785L221.522 564.945V570.973L207.9 580.212C207.227 580.668 206.72 581.324 206.453 582.083C206.187 582.842 206.174 583.665 206.418 584.431C206.661 585.198 207.147 585.868 207.806 586.344C208.465 586.819 209.261 587.076 210.079 587.076H227.137L230.077 581.113L231.225 587.076H237.657L235.85 565.785Z" fill="#2F2E41"/>
<path d="M285.19 570.177L276.125 570.176L271.814 535.846H285.191L285.19 570.177Z" fill="#FFB6B6"/>
<path d="M288.259 565.785L273.931 564.945V570.973L260.308 580.212C259.635 580.668 259.129 581.324 258.862 582.083C258.595 582.842 258.583 583.665 258.826 584.431C259.07 585.198 259.556 585.868 260.215 586.344C260.873 586.819 261.67 587.076 262.487 587.076H279.546L282.486 581.113L283.634 587.076H290.066L288.259 565.785Z" fill="#2F2E41"/>
<path d="M240.852 224.4L259.629 224.762L272.883 238.5L283.509 240.031C288.316 240.723 292.735 243.014 296.028 246.522C299.321 250.029 301.288 254.541 301.6 259.301L299.759 269.231H288.714L282.325 306.071C284.809 312.288 284.978 317.195 279.878 319.123L264.047 348.407L217.289 327.8C214.918 323.796 214.158 319.776 216.582 315.865L213.239 259.469H202C202 248.921 205.633 240.029 216.308 238.856C220.547 238.405 224.807 238.166 229.071 238.139L240.852 224.4Z" fill="#E6E6E6"/>
<path d="M217.289 327.8C217.289 327.8 262.942 335.754 279.878 319.123C279.878 319.123 281.598 321.989 284.189 326.743C284.934 328.11 286.373 329.036 287.242 330.692C288.031 332.197 290.063 334.047 290.923 335.754C291.616 337.127 290.505 338.922 291.225 340.405C299.899 358.269 310.032 383.468 307.859 400.107C306.458 410.837 303.565 435.806 300.517 462.623C300.279 464.718 302.208 467.41 301.968 469.522C301.743 471.513 299.349 472.925 299.124 474.921C298.974 476.246 300.645 477.598 300.496 478.922C300.332 480.374 298.347 481.798 298.184 483.245C294.009 520.273 290.187 554.844 290.187 554.844H268.833L264.804 475.888L268.097 447.107L260.365 388.899L249.688 444.214L248.315 475.346L237.031 556.29H217.289V477.931L215.817 473.86L217.289 468.639L215.817 463.014L217.289 456.888V327.8Z" fill="#2F2E41"/>
<path d="M235.089 213.709C237.997 217.503 242.135 220.211 246.82 221.387C251.506 222.564 256.46 222.138 260.866 220.181C265.272 218.223 268.868 214.85 271.061 210.618C273.255 206.385 273.915 201.546 272.933 196.896C271.952 192.245 269.386 188.062 265.66 185.035C261.934 182.008 257.269 180.317 252.433 180.241C247.598 180.165 242.88 181.708 239.057 184.617C235.234 187.526 232.534 191.626 231.401 196.243C231.34 196.493 231.288 196.742 231.238 197.001C230.64 199.895 230.674 202.881 231.337 205.761C232.001 208.641 233.28 211.35 235.089 213.709Z" fill="#FFB6B6"/>
<path d="M239.526 201.781C239.978 199.556 241.12 197.523 242.796 195.961C242.63 198.093 242.932 200.236 243.679 202.244C249.277 202.731 254.9 201.637 259.886 199.092C263.642 196.59 268.42 196.807 273.987 199.092C273.988 196.433 273.454 193.8 272.418 191.344C271.382 188.887 269.864 186.655 267.949 184.775C266.035 182.895 263.762 181.404 261.26 180.386C258.758 179.369 256.077 178.845 253.37 178.846H249.688C244.22 178.847 238.977 180.98 235.11 184.777C231.244 188.573 229.071 193.722 229.07 199.092C232.468 200.288 235.967 201.189 239.526 201.781Z" fill="#2F2E41"/>
<path d="M248.652 385.013H404.032C406.239 385.008 408.353 384.145 409.914 382.613C411.474 381.081 412.353 379.004 412.359 376.837V302.492C412.354 300.325 411.475 298.248 409.915 296.716C408.354 295.184 406.24 294.32 404.033 294.314H248.653C246.447 294.32 244.332 295.183 242.772 296.715C241.211 298.247 240.332 300.324 240.326 302.49V376.836C240.332 379.003 241.211 381.08 242.771 382.612C244.331 384.144 246.445 385.008 248.652 385.013Z" fill="white"/>
<path d="M248.652 385.013H404.032C406.239 385.008 408.353 384.145 409.914 382.613C411.474 381.081 412.353 379.004 412.359 376.837V302.492C412.354 300.325 411.475 298.248 409.915 296.716C408.354 295.184 406.24 294.32 404.033 294.314H248.653C246.447 294.32 244.332 295.183 242.772 296.715C241.211 298.247 240.332 300.324 240.326 302.49V376.836C240.332 379.003 241.211 381.08 242.771 382.612C244.331 384.144 246.445 385.008 248.652 385.013ZM404.032 296.595C405.623 296.6 407.148 297.223 408.273 298.328C409.398 299.433 410.032 300.93 410.037 302.493V376.836C410.032 378.399 409.398 379.896 408.272 381.001C407.147 382.106 405.622 382.728 404.031 382.732H248.654C247.063 382.728 245.538 382.105 244.413 381C243.287 379.895 242.653 378.398 242.649 376.835V302.492C242.654 300.929 243.288 299.432 244.413 298.327C245.538 297.222 247.063 296.6 248.654 296.595L404.032 296.595Z" fill="#3F3D56"/>
<path d="M318.015 374.028C348.659 374.028 380.613 373.74 392.535 373.554C394.104 373.522 395.597 372.89 396.697 371.791C397.798 370.693 398.417 369.215 398.423 367.675V306.133C398.422 305.581 398.199 305.052 397.802 304.662C397.405 304.271 396.867 304.051 396.306 304.049H256.385C255.823 304.049 255.285 304.269 254.887 304.658C254.489 305.048 254.265 305.576 254.263 306.128V347.882C254.289 354.698 257.035 361.233 261.911 366.084C266.786 370.935 273.404 373.716 280.344 373.83C291.456 373.973 304.613 374.028 318.015 374.028Z" fill="#4EDEFF"/>
<path d="M264.69 344.045H391.12C392.178 344.042 393.21 343.719 394.076 343.12C394.941 342.521 395.597 341.675 395.956 340.697L410.266 301.275C410.541 300.514 410.627 299.7 410.516 298.901C410.405 298.101 410.1 297.339 409.627 296.679C409.154 296.019 408.527 295.48 407.798 295.108C407.068 294.735 406.259 294.54 405.437 294.538L247.403 294.322C246.651 294.321 245.909 294.483 245.228 294.794C244.547 295.105 243.944 295.56 243.461 296.125C242.979 296.69 242.628 297.353 242.434 298.065C242.24 298.778 242.208 299.524 242.34 300.25L242.218 300.301L242.671 301.34L242.676 301.351L259.975 340.988C260.369 341.896 261.026 342.669 261.865 343.213C262.703 343.756 263.686 344.045 264.69 344.045ZM247.395 296.603L405.432 296.819C405.883 296.82 406.326 296.927 406.726 297.131C407.125 297.335 407.469 297.63 407.728 297.992C407.987 298.353 408.154 298.77 408.215 299.208C408.276 299.647 408.229 300.093 408.078 300.509L393.769 339.929C393.572 340.465 393.212 340.929 392.738 341.257C392.264 341.585 391.698 341.762 391.118 341.764H264.69C264.141 341.764 263.603 341.606 263.144 341.308C262.685 341.011 262.326 340.587 262.11 340.091L244.811 300.452C244.627 300.032 244.553 299.574 244.594 299.119C244.636 298.664 244.791 298.226 245.048 297.844C245.304 297.463 245.652 297.15 246.062 296.933C246.472 296.717 246.93 296.603 247.395 296.603Z" fill="#3F3D56"/>
<path d="M326.578 352.624C321.111 352.624 316.679 348.272 316.679 342.903C316.679 337.534 321.111 333.182 326.578 333.182C332.046 333.182 336.478 337.534 336.478 342.903C336.478 348.272 332.046 352.624 326.578 352.624Z" fill="white"/>
<path d="M202.562 293.674L202.531 256.195L224.967 258.164L217.049 281.802L245.79 324.586C247.587 324.982 249.228 325.883 250.513 327.179C251.798 328.475 252.671 330.11 253.026 331.885C253.381 333.66 253.202 335.498 252.511 337.174C251.821 338.851 250.648 340.295 249.137 341.328C247.625 342.362 245.84 342.942 243.999 342.997C242.158 343.051 240.34 342.579 238.768 341.637C237.196 340.695 235.936 339.324 235.144 337.691C234.351 336.058 234.059 334.234 234.304 332.442L202.562 293.674Z" fill="#FFB6B6"/>
</svg>
